<?xml version="1.0" encoding="UTF-8" standalone="no"?>
<!-- Generator: Adobe Illustrator 19.0.0, SVG Export Plug-In . SVG Version: 6.00 Build 0)  -->

<svg
   version="1.1"
   id="Capa_1"
   x="0px"
   y="0px"
   viewBox="0 0 512 512"
   style="enable-background:new 0 0 512 512;"
   xml:space="preserve"
   sodipodi:docname="meeting-point.svg"
   inkscape:version="1.1.2 (b8e25be8, 2022-02-05)"
   xmlns:inkscape="http://www.inkscape.org/namespaces/inkscape"
   xmlns:sodipodi="http://sodipodi.sourceforge.net/DTD/sodipodi-0.dtd"
   xmlns="http://www.w3.org/2000/svg"
   xmlns:svg="http://www.w3.org/2000/svg"><defs
   id="defs51" /><sodipodi:namedview
   id="namedview49"
   pagecolor="#ffffff"
   bordercolor="#999999"
   borderopacity="1"
   inkscape:pageshadow="0"
   inkscape:pageopacity="0"
   inkscape:pagecheckerboard="0"
   showgrid="false"
   inkscape:zoom="1.4042969"
   inkscape:cx="256"
   inkscape:cy="256"
   inkscape:window-width="1728"
   inkscape:window-height="967"
   inkscape:window-x="0"
   inkscape:window-y="38"
   inkscape:window-maximized="1"
   inkscape:current-layer="Capa_1" />
<g
   id="g16"
   style="fill:#ffffff">
	<g
   id="g14"
   style="fill:#ffffff">
		<g
   id="g12"
   style="fill:#ffffff">
			<path
   d="M59.583,117.333l-13.792,13.792c-3.052,3.052-3.969,7.635-2.313,11.625c1.646,3.99,5.542,6.583,9.854,6.583h85.333     c5.896,0,10.667-4.771,10.667-10.667V53.333c0-4.313-2.594-8.208-6.583-9.854c-3.99-1.656-8.573-0.74-11.625,2.313     l-13.792,13.792L60.875,3.125c-4.167-4.167-10.917-4.167-15.083,0L3.125,45.792c-4.167,4.167-4.167,10.917,0,15.083     L59.583,117.333z"
   id="path2"
   style="fill:#ffffff" />
			<path
   d="M373.333,149.333h85.333c4.313,0,8.208-2.594,9.854-6.583c1.656-3.99,0.74-8.573-2.313-11.625l-13.792-13.792     l56.458-56.458c4.167-4.167,4.167-10.917,0-15.083L466.208,3.125c-4.167-4.167-10.917-4.167-15.083,0l-56.458,56.458     l-13.792-13.792c-3.042-3.031-7.604-3.948-11.625-2.313c-3.99,1.646-6.583,5.542-6.583,9.854v85.333     C362.667,144.563,367.438,149.333,373.333,149.333z"
   id="path4"
   style="fill:#ffffff" />
			<path
   d="M138.667,362.667H53.333c-4.313,0-8.208,2.594-9.854,6.583c-1.656,3.99-0.74,8.573,2.313,11.625l13.792,13.792     L3.125,451.125c-4.167,4.167-4.167,10.917,0,15.083l42.667,42.667c2.083,2.083,4.813,3.125,7.542,3.125     c2.729,0,5.458-1.042,7.542-3.125l56.458-56.458l13.792,13.792c3.073,3.073,7.656,4.01,11.625,2.313     c3.99-1.646,6.583-5.542,6.583-9.854v-85.333C149.333,367.438,144.563,362.667,138.667,362.667z"
   id="path6"
   style="fill:#ffffff" />
			<path
   d="M452.417,394.667l13.792-13.792c3.052-3.052,3.969-7.635,2.313-11.625c-1.646-3.99-5.542-6.583-9.854-6.583h-85.333     c-5.896,0-10.667,4.771-10.667,10.667v85.333c0,4.313,2.594,8.208,6.583,9.854c4,1.677,8.583,0.74,11.625-2.313l13.792-13.792     l56.458,56.458c2.083,2.083,4.813,3.125,7.542,3.125s5.458-1.042,7.542-3.125l42.667-42.667c4.167-4.167,4.167-10.917,0-15.083     L452.417,394.667z"
   id="path8"
   style="fill:#ffffff" />
			<circle
   cx="256"
   cy="256"
   r="106.667"
   id="circle10"
   style="fill:#ffffff" />
		</g>
	</g>
</g>
<g
   id="g18">
</g>
<g
   id="g20">
</g>
<g
   id="g22">
</g>
<g
   id="g24">
</g>
<g
   id="g26">
</g>
<g
   id="g28">
</g>
<g
   id="g30">
</g>
<g
   id="g32">
</g>
<g
   id="g34">
</g>
<g
   id="g36">
</g>
<g
   id="g38">
</g>
<g
   id="g40">
</g>
<g
   id="g42">
</g>
<g
   id="g44">
</g>
<g
   id="g46">
</g>
</svg>
