<?xml version="1.0" encoding="iso-8859-1"?>
<!-- Generator: Adobe Illustrator 19.0.0, SVG Export Plug-In . SVG Version: 6.00 Build 0)  -->
<svg version="1.1" id="Capa_1" xmlns="http://www.w3.org/2000/svg" xmlns:xlink="http://www.w3.org/1999/xlink" x="0px" y="0px"
	 viewBox="0 0 512 512" style="enable-background:new 0 0 512 512;" xml:space="preserve">
<path style="fill:#303C42;" d="M59.583,117.333l-13.792,13.792c-3.052,3.052-3.969,7.635-2.313,11.625
	c1.646,3.99,5.542,6.583,9.854,6.583h85.333c5.896,0,10.667-4.771,10.667-10.667V53.333c0-4.313-2.594-8.208-6.583-9.854
	c-3.99-1.656-8.573-0.74-11.625,2.313l-13.792,13.792L60.875,3.125c-4.167-4.167-10.917-4.167-15.083,0L3.125,45.792
	c-4.167,4.167-4.167,10.917,0,15.083L59.583,117.333z"/>
<path style="fill:#00AAE7;" d="M53.333,25.75l56.458,56.458c4.167,4.167,10.917,4.167,15.083,0L128,79.083V128H79.083l3.125-3.125
	c4.167-4.167,4.167-10.917,0-15.083L25.75,53.333L53.333,25.75z"/>
<path style="fill:#303C42;" d="M373.333,149.333h85.333c4.313,0,8.208-2.594,9.854-6.583c1.656-3.99,0.74-8.573-2.313-11.625
	l-13.792-13.792l56.458-56.458c4.167-4.167,4.167-10.917,0-15.083L466.208,3.125c-4.167-4.167-10.917-4.167-15.083,0l-56.458,56.458
	l-13.792-13.792c-3.042-3.031-7.604-3.948-11.625-2.313c-3.99,1.646-6.583,5.542-6.583,9.854v85.333
	C362.667,144.563,367.438,149.333,373.333,149.333z"/>
<path style="fill:#00AAE7;" d="M384,79.083l3.125,3.125c4.167,4.167,10.917,4.167,15.083,0l56.458-56.458l27.583,27.583
	l-56.458,56.458c-4.167,4.167-4.167,10.917,0,15.083l3.125,3.125H384V79.083z"/>
<path style="fill:#303C42;" d="M138.667,362.667H53.333c-4.313,0-8.208,2.594-9.854,6.583c-1.656,3.99-0.74,8.573,2.313,11.625
	l13.792,13.792L3.125,451.125c-4.167,4.167-4.167,10.917,0,15.083l42.667,42.667c2.083,2.083,4.813,3.125,7.542,3.125
	c2.729,0,5.458-1.042,7.542-3.125l56.458-56.458l13.792,13.792c3.073,3.073,7.656,4.01,11.625,2.313
	c3.99-1.646,6.583-5.542,6.583-9.854v-85.333C149.333,367.438,144.563,362.667,138.667,362.667z"/>
<path style="fill:#00AAE7;" d="M128,432.917l-3.125-3.125c-4.167-4.167-10.917-4.167-15.083,0L53.333,486.25L25.75,458.667
	l56.458-56.458c4.167-4.167,4.167-10.917,0-15.083L79.083,384H128V432.917z"/>
<path style="fill:#303C42;" d="M452.417,394.667l13.792-13.792c3.052-3.052,3.969-7.635,2.313-11.625
	c-1.646-3.99-5.542-6.583-9.854-6.583h-85.333c-5.896,0-10.667,4.771-10.667,10.667v85.333c0,4.313,2.594,8.208,6.583,9.854
	c4,1.677,8.583,0.74,11.625-2.313l13.792-13.792l56.458,56.458c2.083,2.083,4.813,3.125,7.542,3.125
	c2.729,0,5.458-1.042,7.542-3.125l42.667-42.667c4.167-4.167,4.167-10.917,0-15.083L452.417,394.667z"/>
<path style="fill:#00AAE7;" d="M458.667,486.25l-56.458-56.458c-2.083-2.083-4.813-3.125-7.542-3.125
	c-2.729,0-5.458,1.042-7.542,3.125L384,432.917V384h48.917l-3.125,3.125c-4.167,4.167-4.167,10.917,0,15.083l56.458,56.458
	L458.667,486.25z"/>
<circle style="fill:#303C42;" cx="256" cy="256" r="106.667"/>
<circle style="fill:#00AAE7;" cx="256" cy="256" r="85.333"/>
<path style="opacity:0.1;enable-background:new    ;" d="M318.482,198.318c0.876,4.893,1.518,9.874,1.518,15.016
	c0,47.052-38.281,85.333-85.333,85.333c-24.75,0-46.88-10.762-62.482-27.651c7.138,39.891,41.905,70.318,83.815,70.318
	c47.052,0,85.333-38.281,85.333-85.333C341.333,233.698,332.54,213.536,318.482,198.318z"/>
<linearGradient id="SVGID_1_" gradientUnits="userSpaceOnUse" x1="-48.2411" y1="640.7974" x2="-21.1652" y2="628.1714" gradientTransform="matrix(21.3333 0 0 -21.3333 996.3334 13791.667)">
	<stop  offset="0" style="stop-color:#FFFFFF;stop-opacity:0.2"/>
	<stop  offset="1" style="stop-color:#FFFFFF;stop-opacity:0"/>
</linearGradient>
<path style="fill:url(#SVGID_1_);" d="M59.583,117.333l-13.792,13.792c-3.052,3.052-3.969,7.635-2.313,11.625
	c1.646,3.99,5.542,6.583,9.854,6.583h85.333c5.896,0,10.667-4.771,10.667-10.667V53.333c0-4.313-2.594-8.208-6.583-9.854
	c-3.99-1.656-8.573-0.74-11.625,2.313l-13.792,13.792L60.875,3.125c-4.167-4.167-10.917-4.167-15.083,0L3.125,45.792
	c-4.167,4.167-4.167,10.917,0,15.083L59.583,117.333z M373.333,149.333h85.333c4.313,0,8.208-2.594,9.854-6.583
	c1.656-3.99,0.74-8.573-2.313-11.625l-13.792-13.792l56.458-56.458c4.167-4.167,4.167-10.917,0-15.083L466.208,3.125
	c-4.167-4.167-10.917-4.167-15.083,0l-56.458,56.458l-13.792-13.792c-3.042-3.031-7.604-3.948-11.625-2.313
	c-3.99,1.646-6.583,5.542-6.583,9.854v85.333C362.667,144.563,367.438,149.333,373.333,149.333z M138.667,362.667H53.333
	c-4.313,0-8.208,2.594-9.854,6.583c-1.656,3.99-0.74,8.573,2.313,11.625l13.792,13.792L3.125,451.125
	c-4.167,4.167-4.167,10.917,0,15.083l42.667,42.667c2.083,2.083,4.813,3.125,7.542,3.125c2.729,0,5.458-1.042,7.542-3.125
	l56.458-56.458l13.792,13.792c3.073,3.073,7.656,4.01,11.625,2.313c3.99-1.646,6.583-5.542,6.583-9.854v-85.333
	C149.333,367.438,144.563,362.667,138.667,362.667z M452.417,394.667l13.792-13.792c3.052-3.052,3.969-7.635,2.313-11.625
	c-1.646-3.99-5.542-6.583-9.854-6.583h-85.333c-5.896,0-10.667,4.771-10.667,10.667v85.333c0,4.313,2.594,8.208,6.583,9.854
	c4,1.677,8.583,0.74,11.625-2.313l13.792-13.792l56.458,56.458c2.083,2.083,4.813,3.125,7.542,3.125
	c2.729,0,5.458-1.042,7.542-3.125l42.667-42.667c4.167-4.167,4.167-10.917,0-15.083L452.417,394.667z M256,149.333
	c-58.813,0-106.667,47.854-106.667,106.667S197.188,362.667,256,362.667S362.667,314.813,362.667,256S314.813,149.333,256,149.333z"
	/>
<g>
</g>
<g>
</g>
<g>
</g>
<g>
</g>
<g>
</g>
<g>
</g>
<g>
</g>
<g>
</g>
<g>
</g>
<g>
</g>
<g>
</g>
<g>
</g>
<g>
</g>
<g>
</g>
<g>
</g>
</svg>
